<svg width="30" height="30" viewBox="0 0 30 30" fill="none" xmlns="http://www.w3.org/2000/svg">
<path d="M25.625 7.75H22.5V7.5C22.5 5.51088 21.7098 3.60322 20.3033 2.1967C18.8968 0.790176 16.9891 0 15 0C13.0109 0 11.1032 0.790176 9.6967 2.1967C8.29018 3.60322 7.5 5.51088 7.5 7.5V7.75H4.375C3.21901 7.76395 2.1143 8.22936 1.29683 9.04683C0.479361 9.8643 0.0139467 10.969 0 12.125L0 23.125C0.0159877 24.9434 0.745449 26.6828 2.03131 27.9687C3.31718 29.2546 5.05659 29.984 6.875 30H23.125C24.9434 29.984 26.6828 29.2546 27.9687 27.9687C29.2546 26.6828 29.984 24.9434 30 23.125V12.125C29.9861 10.969 29.5206 9.8643 28.7032 9.04683C27.8857 8.22936 26.781 7.76395 25.625 7.75ZM11.25 7.5C11.25 6.50544 11.6451 5.55161 12.3483 4.84835C13.0516 4.14509 14.0054 3.75 15 3.75C15.9946 3.75 16.9484 4.14509 17.6517 4.84835C18.3549 5.55161 18.75 6.50544 18.75 7.5V7.75H11.25V7.5ZM26.25 23.125C26.254 23.5365 26.1759 23.9447 26.0203 24.3256C25.8647 24.7066 25.6346 25.0527 25.3436 25.3436C25.0527 25.6346 24.7066 25.8647 24.3256 26.0203C23.9447 26.1759 23.5365 26.254 23.125 26.25H6.875C6.4635 26.254 6.05534 26.1759 5.67439 26.0203C5.29344 25.8647 4.94734 25.6346 4.65636 25.3436C4.36537 25.0527 4.13534 24.7066 3.97971 24.3256C3.82408 23.9447 3.74599 23.5365 3.75 23.125V12.125C3.74489 12.0416 3.75755 11.958 3.78715 11.8799C3.81675 11.8018 3.86261 11.7308 3.9217 11.6717C3.98079 11.6126 4.05176 11.5667 4.1299 11.5371C4.20805 11.5075 4.29159 11.4949 4.375 11.5H7.5V13.125C7.5 13.6223 7.69754 14.0992 8.04917 14.4508C8.40081 14.8025 8.87772 15 9.375 15C9.87228 15 10.3492 14.8025 10.7008 14.4508C11.0525 14.0992 11.25 13.6223 11.25 13.125V11.5H18.75V13.125C18.75 13.6223 18.9475 14.0992 19.2992 14.4508C19.6508 14.8025 20.1277 15 20.625 15C21.1223 15 21.5992 14.8025 21.9508 14.4508C22.3025 14.0992 22.5 13.6223 22.5 13.125V11.5H25.625C25.7084 11.4949 25.792 11.5075 25.8701 11.5371C25.9482 11.5667 26.0192 11.6126 26.0783 11.6717C26.1374 11.7308 26.1833 11.8018 26.2129 11.8799C26.2425 11.958 26.2551 12.0416 26.25 12.125V23.125Z" fill="white"/>
</svg>
