<svg width="18" height="20" viewBox="0 0 18 20" fill="none" xmlns="http://www.w3.org/2000/svg">
<g clip-path="url(#clip0_5_3829)">
<path d="M5.20014 19.9998C6.02072 19.9998 6.68593 19.2536 6.68593 18.3332C6.68593 17.4127 6.02072 16.6665 5.20014 16.6665C4.37957 16.6665 3.71436 17.4127 3.71436 18.3332C3.71436 19.2536 4.37957 19.9998 5.20014 19.9998Z" fill="white"/>
<path d="M12.6291 19.9998C13.4497 19.9998 14.1149 19.2536 14.1149 18.3332C14.1149 17.4127 13.4497 16.6665 12.6291 16.6665C11.8085 16.6665 11.1433 17.4127 11.1433 18.3332C11.1433 19.2536 11.8085 19.9998 12.6291 19.9998Z" fill="white"/>
<path d="M4.20032 4.16667L4.00494 2.44833C3.934 1.77391 3.64492 1.15213 3.19251 0.700864C2.74011 0.249599 2.15582 0.000218231 1.55042 0L0 0V2.5H1.55042C1.61119 2.50073 1.66957 2.52668 1.7143 2.57285C1.75902 2.61901 1.78691 2.68212 1.7926 2.75L2.90694 12.5492C2.97723 13.2241 3.26604 13.8466 3.71853 14.2984C4.17102 14.7502 4.75568 14.9999 5.36147 15H15.155L17.8101 4.16667H4.20032ZM13.4553 12.5H5.36147C5.30072 12.4994 5.24234 12.4735 5.19771 12.4273C5.15307 12.3811 5.12538 12.3179 5.12003 12.25L4.48485 6.66667H14.8854L13.4553 12.5Z" fill="white"/>
</g>
<defs>
<clipPath id="clip0_5_3829">
<rect width="17.8295" height="20" fill="white"/>
</clipPath>
</defs>
</svg>
