<svg width="30" height="30" viewBox="0 0 30 30" fill="none" xmlns="http://www.w3.org/2000/svg">
<g clip-path="url(#clip0_5_4558)">
<path d="M8.125 20C9.16053 20 10 19.1605 10 18.125C10 17.0894 9.16053 16.25 8.125 16.25C7.08947 16.25 6.25 17.0894 6.25 18.125C6.25 19.1605 7.08947 20 8.125 20Z" fill="white"/>
<path d="M23.125 3.74998H6.875C5.05225 3.75196 3.30472 4.47693 2.01583 5.76581C0.726951 7.05469 0.00198521 8.80222 0 10.625L0 19.375C0.00198521 21.1977 0.726951 22.9453 2.01583 24.2341C3.30472 25.523 5.05225 26.248 6.875 26.25H23.125C24.9478 26.248 26.6953 25.523 27.9842 24.2341C29.273 22.9453 29.998 21.1977 30 19.375V10.625C29.998 8.80222 29.273 7.05469 27.9842 5.76581C26.6953 4.47693 24.9478 3.75196 23.125 3.74998ZM6.875 7.49998H23.125C23.8452 7.50012 24.5432 7.74901 25.101 8.20456C25.6589 8.6601 26.0422 9.29433 26.1862 9.99998H3.81375C3.95779 9.29433 4.34114 8.6601 4.89895 8.20456C5.45677 7.74901 6.15481 7.50012 6.875 7.49998ZM23.125 22.5H6.875C6.0462 22.5 5.25134 22.1707 4.66529 21.5847C4.07924 20.9986 3.75 20.2038 3.75 19.375V13.75H26.25V19.375C26.25 20.2038 25.9208 20.9986 25.3347 21.5847C24.7487 22.1707 23.9538 22.5 23.125 22.5Z" fill="white"/>
</g>
<defs>
<clipPath id="clip0_5_4558">
<rect width="30" height="30" fill="white"/>
</clipPath>
</defs>
</svg>
