<svg width="21" height="22" viewBox="0 0 21 22" fill="none" xmlns="http://www.w3.org/2000/svg">
<g clip-path="url(#clip0_5_2923)">
<path d="M19.6519 7.33325H10.0443C9.32019 7.33325 8.73413 7.92173 8.73413 8.64681C8.73413 9.3719 9.32019 9.96037 10.0443 9.96037H19.6519C20.375 9.96037 20.962 9.3719 20.962 8.64681C20.962 7.92173 20.375 7.33325 19.6519 7.33325Z" fill="#DF382D"/>
<path d="M16.1582 12.5876H10.0443C9.32019 12.5876 8.73413 13.1761 8.73413 13.9012C8.73413 14.6263 9.32019 15.2148 10.0443 15.2148H16.1582C16.8814 15.2148 17.4683 14.6263 17.4683 13.9012C17.4683 13.1761 16.8814 12.5876 16.1582 12.5876Z" fill="#DF382D"/>
<path d="M12.6645 17.8418H10.0443C9.32019 17.8418 8.73413 18.4303 8.73413 19.1554C8.73413 19.8804 9.32019 20.4689 10.0443 20.4689H12.6645C13.3877 20.4689 13.9746 19.8804 13.9746 19.1554C13.9746 18.4303 13.3877 17.8418 12.6645 17.8418Z" fill="#DF382D"/>
<path d="M8.51758 3.72448L5.3855 0.584193C5.044 0.241792 4.49112 0.241792 4.15049 0.584193L1.01841 3.72448C0.677781 4.06688 0.677781 4.6212 1.01841 4.96272C1.18174 5.12648 1.40446 5.21931 1.63592 5.21931H3.49368V22.4208C3.49368 23.1459 4.07974 23.7344 4.80381 23.7344C5.52787 23.7344 6.11393 23.1459 6.11393 22.4208V5.21931H7.90007C8.3822 5.21931 8.77349 4.82699 8.77349 4.3436C8.77349 4.11154 8.68178 3.88911 8.51758 3.72448Z" fill="#DF382D"/>
</g>
<defs>
<clipPath id="clip0_5_2923">
<rect width="20.962" height="21.017" fill="white" transform="translate(0 0.327637)"/>
</clipPath>
</defs>
</svg>
