<svg width="20" height="20" viewBox="0 0 20 20" fill="none" xmlns="http://www.w3.org/2000/svg">
<g clip-path="url(#clip0_5_3819)">
<path d="M10 20C8.02219 20 6.08879 19.4135 4.4443 18.3147C2.79981 17.2159 1.51809 15.6541 0.761209 13.8268C0.00433286 11.9996 -0.193701 9.98891 0.192152 8.0491C0.578004 6.10929 1.53041 4.32746 2.92894 2.92894C4.32746 1.53041 6.10929 0.578004 8.0491 0.192152C9.98891 -0.193701 11.9996 0.00433286 13.8268 0.761209C15.6541 1.51809 17.2159 2.79981 18.3147 4.4443C19.4135 6.08879 20 8.02219 20 10C19.9971 12.6513 18.9426 15.1932 17.0679 17.0679C15.1932 18.9426 12.6513 19.9971 10 20ZM10 2.5C8.51664 2.5 7.0666 2.93987 5.83323 3.76398C4.59986 4.58809 3.63857 5.75943 3.07091 7.12988C2.50325 8.50032 2.35473 10.0083 2.64411 11.4632C2.9335 12.918 3.64781 14.2544 4.6967 15.3033C5.7456 16.3522 7.08197 17.0665 8.53683 17.3559C9.99168 17.6453 11.4997 17.4968 12.8701 16.9291C14.2406 16.3614 15.4119 15.4001 16.236 14.1668C17.0601 12.9334 17.5 11.4834 17.5 10C17.4978 8.01156 16.7069 6.10518 15.3009 4.69914C13.8948 3.29309 11.9885 2.50221 10 2.5Z" fill="white"/>
<path d="M8.75009 11.7951C8.73777 11.1523 8.89783 10.518 9.21365 9.95802C9.52946 9.39805 9.98949 8.9329 10.5459 8.61091C10.7219 8.51475 10.8693 8.37373 10.9732 8.20218C11.0771 8.03062 11.1337 7.83464 11.1374 7.63412C11.1411 7.43359 11.0916 7.23568 10.994 7.06045C10.8965 6.88523 10.7543 6.73894 10.5819 6.63644C10.4095 6.53393 10.2131 6.47886 10.0125 6.47681C9.81198 6.47476 9.61447 6.52581 9.44003 6.62478C9.26559 6.72374 9.12045 6.8671 9.01932 7.04029C8.9182 7.21349 8.8647 7.41035 8.86426 7.61091H6.36426C6.36417 7.07845 6.48101 6.55246 6.70651 6.07011C6.93202 5.58776 7.26069 5.16081 7.66932 4.81943C8.07794 4.47805 8.55655 4.23056 9.07132 4.09445C9.58609 3.95835 10.1245 3.93694 10.6484 4.03174C11.3885 4.16525 12.069 4.52492 12.5963 5.06123C13.1235 5.59755 13.4714 6.28412 13.5923 7.0264C13.7131 7.76869 13.6008 8.53017 13.2709 9.206C12.941 9.88182 12.4097 10.4387 11.7501 10.8001C11.5874 10.9081 11.4557 11.0567 11.368 11.2312C11.2803 11.4057 11.2397 11.6001 11.2501 11.7951H8.75009Z" fill="white"/>
<path d="M11.3042 13.3281H8.8042V15.8281H11.3042V13.3281Z" fill="white"/>
</g>
<defs>
<clipPath id="clip0_5_3819">
<rect width="20" height="20" fill="white"/>
</clipPath>
</defs>
</svg>
