<svg width="20" height="20" viewBox="0 0 20 20" fill="none" xmlns="http://www.w3.org/2000/svg">
<g clip-path="url(#clip0_5_3843)">
<path d="M0 2.5V9.16667H9.16667V0H2.5C1.83696 0 1.20107 0.263392 0.732233 0.732233C0.263392 1.20107 0 1.83696 0 2.5H0ZM2.5 2.5H6.66667V6.66667H2.5V2.5Z" fill="white"/>
<path d="M17.4999 0H10.8333V9.16667H19.9999V2.5C19.9999 1.83696 19.7365 1.20107 19.2677 0.732233C18.7988 0.263392 18.163 0 17.4999 0V0ZM17.4999 6.66667H13.3333V2.5H17.4999V6.66667Z" fill="white"/>
<path d="M0 17.5002C0 18.1632 0.263392 18.7991 0.732233 19.2679C1.20107 19.7368 1.83696 20.0002 2.5 20.0002H9.16667V10.8335H0V17.5002ZM2.5 13.3335H6.66667V17.5002H2.5V13.3335Z" fill="white"/>
<path d="M10.8333 20.0002H17.4999C18.163 20.0002 18.7988 19.7368 19.2677 19.2679C19.7365 18.7991 19.9999 18.1632 19.9999 17.5002V10.8335H10.8333V20.0002ZM13.3333 13.3335H17.4999V17.5002H13.3333V13.3335Z" fill="white"/>
</g>
<defs>
<clipPath id="clip0_5_3843">
<rect width="20" height="20" fill="white"/>
</clipPath>
</defs>
</svg>
