<svg width="33" height="33" viewBox="0 0 33 33" fill="none" xmlns="http://www.w3.org/2000/svg">
<path d="M13.75 8.25H31.625C31.9897 8.25 32.3394 8.10513 32.5973 7.84727C32.8551 7.58941 33 7.23967 33 6.875C33 6.51033 32.8551 6.16059 32.5973 5.90273C32.3394 5.64487 31.9897 5.5 31.625 5.5H13.75C13.3853 5.5 13.0356 5.64487 12.7777 5.90273C12.5199 6.16059 12.375 6.51033 12.375 6.875C12.375 7.23967 12.5199 7.58941 12.7777 7.84727C13.0356 8.10513 13.3853 8.25 13.75 8.25Z" fill="white"/>
<path d="M31.625 15.125H13.75C13.3853 15.125 13.0356 15.2699 12.7777 15.5277C12.5199 15.7856 12.375 16.1353 12.375 16.5C12.375 16.8647 12.5199 17.2144 12.7777 17.4723C13.0356 17.7301 13.3853 17.875 13.75 17.875H31.625C31.9897 17.875 32.3394 17.7301 32.5973 17.4723C32.8551 17.2144 33 16.8647 33 16.5C33 16.1353 32.8551 15.7856 32.5973 15.5277C32.3394 15.2699 31.9897 15.125 31.625 15.125Z" fill="white"/>
<path d="M31.625 24.75H13.75C13.3853 24.75 13.0356 24.8949 12.7777 25.1527C12.5199 25.4106 12.375 25.7603 12.375 26.125C12.375 26.4897 12.5199 26.8394 12.7777 27.0973C13.0356 27.3551 13.3853 27.5 13.75 27.5H31.625C31.9897 27.5 32.3394 27.3551 32.5973 27.0973C32.8551 26.8394 33 26.4897 33 26.125C33 25.7603 32.8551 25.4106 32.5973 25.1527C32.3394 24.8949 31.9897 24.75 31.625 24.75Z" fill="white"/>
<path d="M8.36963 8.24979C8.50567 8.24976 8.63864 8.20938 8.75171 8.13375C8.86479 8.05811 8.95288 7.95064 9.00485 7.82492C9.05682 7.6992 9.07032 7.56089 9.04364 7.42749C9.01697 7.2941 8.95132 7.17161 8.85501 7.07554L5.50001 3.72192C5.24216 3.46414 4.89249 3.31934 4.52788 3.31934C4.16328 3.31934 3.81361 3.46414 3.55576 3.72192L0.202135 7.07554C0.105821 7.17161 0.0401733 7.2941 0.0135004 7.42749C-0.0131725 7.56089 0.000328447 7.6992 0.0522945 7.82492C0.10426 7.95064 0.192355 8.05811 0.305429 8.13375C0.418504 8.20938 0.551473 8.24976 0.68751 8.24979H3.15426V24.7498H0.68751C0.551356 24.7495 0.418196 24.7897 0.304911 24.8653C0.191626 24.9408 0.103318 25.0483 0.0511812 25.174C-0.000955364 25.2998 -0.0145721 25.4382 0.0120572 25.5718C0.0386865 25.7053 0.104363 25.8279 0.20076 25.924L3.55576 29.2777C3.81361 29.5354 4.16328 29.6803 4.52788 29.6803C4.89249 29.6803 5.24216 29.5354 5.50001 29.2777L8.85501 25.924C8.95132 25.828 9.01697 25.7055 9.04364 25.5721C9.07032 25.4387 9.05682 25.3004 9.00485 25.1747C8.95288 25.0489 8.86479 24.9415 8.75171 24.8658C8.63864 24.7902 8.50567 24.7498 8.36963 24.7498H5.90426V8.24979H8.36963Z" fill="white"/>
</svg>
