<svg width="32" height="31" viewBox="0 0 32 31" fill="none" xmlns="http://www.w3.org/2000/svg">
<g clip-path="url(#clip0_492_5348)">
<path d="M26.7579 7.75008H7.17895C6.14909 7.75008 5.18189 7.26441 4.56842 6.45971C5.16493 5.67566 6.11385 5.16675 7.17895 5.16675H29.3684C31.9424 5.12283 31.9411 1.33437 29.3684 1.29175H7.17895C3.22139 1.29175 0 4.47829 0 8.39591V22.6042C0 26.5219 3.22139 29.7084 7.17895 29.7084H26.7579C29.2771 29.7084 31.3263 27.6805 31.3263 25.1876V12.2709C31.3263 9.778 29.2771 7.75008 26.7579 7.75008ZM27.4105 25.1876C27.4105 25.5441 27.1168 25.8334 26.7579 25.8334H7.17895C5.37899 25.8334 3.91579 24.3842 3.91579 22.6042V10.8449C4.91171 11.3487 6.02771 11.6251 7.17895 11.6251H26.7579C27.1168 11.6251 27.4105 11.9144 27.4105 12.2709V25.1876ZM24.8 18.7292C24.7556 21.2764 20.9273 21.2751 20.8842 18.7292C20.9286 16.1821 24.7569 16.1834 24.8 18.7292Z" fill="#DF382D"/>
</g>
<defs>
<clipPath id="clip0_492_5348">
<rect width="31.3263" height="31" fill="white"/>
</clipPath>
</defs>
</svg>
